<?xml version="1.0" encoding="UTF-8"?>
<svg xmlns="http://www.w3.org/2000/svg" xmlns:xlink="http://www.w3.org/1999/xlink" width="32px" height="32px" viewBox="0 0 32 32" version="1.1">
<g id="surface1">
<path style="fill:none;stroke-width:1.5;stroke-linecap:round;stroke-linejoin:miter;stroke:rgb(12.941176%,12.941176%,12.941176%);stroke-opacity:1;stroke-miterlimit:4;" d="M 17.000977 7.831055 L 18.697266 9.357422 C 20.238281 10.746094 21.011719 11.4375 21.011719 12.331055 C 21.011719 13.22168 20.238281 13.913086 18.697266 15.301758 L 17.000977 16.831055 " transform="matrix(1.333333,0,0,1.333333,0,0)"/>
<path style="fill:none;stroke-width:1.5;stroke-linecap:round;stroke-linejoin:miter;stroke:rgb(12.941176%,12.941176%,12.941176%);stroke-opacity:1;stroke-miterlimit:4;" d="M 13.986328 5.000977 L 10.013672 19.831055 " transform="matrix(1.333333,0,0,1.333333,0,0)"/>
<path style="fill:none;stroke-width:1.5;stroke-linecap:round;stroke-linejoin:miter;stroke:rgb(12.941176%,12.941176%,12.941176%);stroke-opacity:1;stroke-miterlimit:4;" d="M 6.999023 7.831055 L 5.302734 9.357422 C 3.761719 10.746094 2.991211 11.4375 2.991211 12.331055 C 2.991211 13.22168 3.761719 13.913086 5.302734 15.301758 L 6.999023 16.831055 " transform="matrix(1.333333,0,0,1.333333,0,0)"/>
</g>
</svg>
