<?xml version="1.0" encoding="UTF-8"?>
<svg xmlns="http://www.w3.org/2000/svg" xmlns:xlink="http://www.w3.org/1999/xlink" width="32px" height="32px" viewBox="0 0 32 32" version="1.1">
<g id="surface1">
<path style=" stroke:none;fill-rule:evenodd;fill:rgb(12.941176%,12.941176%,12.941176%);fill-opacity:1;" d="M 14.589844 1.667969 L 17.410156 1.667969 C 19.859375 1.667969 21.800781 1.667969 23.320312 1.871094 C 24.882812 2.082031 26.148438 2.523438 27.144531 3.523438 C 28.144531 4.519531 28.585938 5.785156 28.796875 7.347656 C 29 8.867188 29 10.808594 29 13.257812 L 29 18.742188 C 29 21.191406 29 23.132812 28.796875 24.652344 C 28.585938 26.214844 28.144531 27.480469 27.144531 28.476562 C 26.148438 29.476562 24.882812 29.917969 23.320312 30.128906 C 21.800781 30.332031 19.859375 30.332031 17.410156 30.332031 L 14.589844 30.332031 C 12.140625 30.332031 10.199219 30.332031 8.679688 30.128906 C 7.117188 29.917969 5.851562 29.476562 4.855469 28.476562 C 3.855469 27.480469 3.414062 26.214844 3.203125 24.652344 C 3 23.132812 3 21.191406 3 18.742188 L 3 13.257812 C 3 10.808594 3 8.867188 3.203125 7.347656 C 3.414062 5.785156 3.855469 4.519531 4.855469 3.523438 C 5.851562 2.523438 7.117188 2.082031 8.679688 1.871094 C 10.199219 1.667969 12.140625 1.667969 14.589844 1.667969 Z M 8.949219 3.851562 C 7.605469 4.035156 6.832031 4.371094 6.269531 4.9375 C 5.703125 5.5 5.367188 6.273438 5.1875 7.613281 C 5.003906 8.984375 5 10.789062 5 13.332031 L 5 18.667969 C 5 21.210938 5.003906 23.015625 5.1875 24.386719 C 5.367188 25.726562 5.703125 26.5 6.269531 27.0625 C 6.832031 27.628906 7.605469 27.964844 8.949219 28.148438 C 10.316406 28.332031 12.125 28.332031 14.667969 28.332031 L 17.332031 28.332031 C 19.875 28.332031 21.683594 28.332031 23.050781 28.148438 C 24.394531 27.964844 25.167969 27.628906 25.730469 27.0625 C 26.296875 26.5 26.632812 25.726562 26.8125 24.386719 C 26.996094 23.015625 27 21.210938 27 18.667969 L 27 13.332031 C 27 10.789062 26.996094 8.984375 26.8125 7.613281 C 26.632812 6.273438 26.296875 5.5 25.730469 4.9375 C 25.167969 4.371094 24.394531 4.035156 23.050781 3.851562 C 21.683594 3.667969 19.875 3.667969 17.332031 3.667969 L 14.667969 3.667969 C 12.125 3.667969 10.316406 3.667969 8.949219 3.851562 Z M 9.667969 10.667969 C 9.667969 10.113281 10.113281 9.667969 10.667969 9.667969 L 21.332031 9.667969 C 21.886719 9.667969 22.332031 10.113281 22.332031 10.667969 C 22.332031 11.21875 21.886719 11.667969 21.332031 11.667969 L 10.667969 11.667969 C 10.113281 11.667969 9.667969 11.21875 9.667969 10.667969 Z M 9.667969 16 C 9.667969 15.449219 10.113281 15 10.667969 15 L 21.332031 15 C 21.886719 15 22.332031 15.449219 22.332031 16 C 22.332031 16.550781 21.886719 17 21.332031 17 L 10.667969 17 C 10.113281 17 9.667969 16.550781 9.667969 16 Z M 9.667969 21.332031 C 9.667969 20.78125 10.113281 20.332031 10.667969 20.332031 L 17.332031 20.332031 C 17.886719 20.332031 18.332031 20.78125 18.332031 21.332031 C 18.332031 21.886719 17.886719 22.332031 17.332031 22.332031 L 10.667969 22.332031 C 10.113281 22.332031 9.667969 21.886719 9.667969 21.332031 Z M 9.667969 21.332031 "/>
</g>
</svg>
