<?xml version="1.0" encoding="UTF-8"?>
<svg xmlns="http://www.w3.org/2000/svg" xmlns:xlink="http://www.w3.org/1999/xlink" width="32px" height="32px" viewBox="0 0 32 32" version="1.1">
<g id="surface1">
<path style="fill:none;stroke-width:2;stroke-linecap:round;stroke-linejoin:round;stroke:rgb(12.941176%,12.941176%,12.941176%);stroke-opacity:1;stroke-miterlimit:4;" d="M 9.999023 18.999023 L 6.199219 18.999023 C 5.080078 18.999023 4.520508 18.999023 4.092773 18.782227 C 3.714844 18.588867 3.410156 18.28418 3.216797 17.90918 C 3 17.481445 3 16.918945 3 15.799805 L 3 8.200195 C 3 7.081055 3 6.518555 3.216797 6.09082 C 3.410156 5.71582 3.714844 5.411133 4.092773 5.217773 C 4.520508 5.000977 5.080078 5.000977 6.199219 5.000977 L 17.800781 5.000977 C 18.919922 5.000977 19.479492 5.000977 19.907227 5.217773 C 20.285156 5.411133 20.589844 5.71582 20.783203 6.09082 C 21 6.518555 21 7.081055 21 8.200195 L 21 9.999023 M 20.607422 8.261719 L 15.550781 11.633789 C 14.267578 12.489258 13.625977 12.916992 12.931641 13.083984 C 12.319336 13.230469 11.680664 13.230469 11.068359 13.083984 C 10.374023 12.916992 9.732422 12.489258 8.449219 11.633789 L 3.146484 8.097656 M 14.000977 21 L 16.025391 20.595703 C 16.201172 20.560547 16.289062 20.542969 16.371094 20.510742 C 16.444336 20.481445 16.514648 20.443359 16.579102 20.399414 C 16.652344 20.349609 16.713867 20.285156 16.842773 20.15625 L 21 15.999023 C 21.553711 15.448242 21.553711 14.551758 21 14.000977 C 20.446289 13.447266 19.552734 13.447266 18.999023 14.000977 L 14.841797 18.158203 C 14.71582 18.28418 14.651367 18.348633 14.601562 18.421875 C 14.554687 18.486328 14.519531 18.553711 14.490234 18.626953 C 14.458008 18.708984 14.44043 18.799805 14.405273 18.975586 Z M 14.000977 21 " transform="matrix(1.333333,0,0,1.333333,0,0)"/>
</g>
</svg>
