<?xml version="1.0" encoding="UTF-8"?>
<svg xmlns="http://www.w3.org/2000/svg" xmlns:xlink="http://www.w3.org/1999/xlink" width="24px" height="24px" viewBox="0 0 24 24" version="1.1">
<g id="surface1">
<path style="fill:none;stroke-width:2;stroke-linecap:round;stroke-linejoin:round;stroke:rgb(100%,100%,100%);stroke-opacity:1;stroke-miterlimit:4;" d="M 16 17 L 21 17 M 18.5 14.5 L 18.5 19.5 M 12 19 L 6.199219 19 C 5.078125 19 4.519531 19 4.09375 18.78125 C 3.714844 18.589844 3.410156 18.285156 3.21875 17.90625 C 3 17.480469 3 16.921875 3 15.800781 L 3 8.199219 C 3 7.078125 3 6.519531 3.21875 6.09375 C 3.410156 5.714844 3.714844 5.410156 4.09375 5.21875 C 4.519531 5 5.078125 5 6.199219 5 L 17.800781 5 C 18.921875 5 19.480469 5 19.90625 5.21875 C 20.285156 5.410156 20.589844 5.714844 20.78125 6.09375 C 21 6.519531 21 7.078125 21 8.199219 L 21 11 M 20.605469 8.261719 L 15.550781 11.632812 C 14.265625 12.488281 13.625 12.917969 12.933594 13.082031 C 12.320312 13.230469 11.679688 13.230469 11.066406 13.082031 C 10.375 12.917969 9.734375 12.488281 8.449219 11.632812 L 3.148438 8.097656 "/>
</g>
</svg>
