<?xml version="1.0" encoding="UTF-8"?>
<svg xmlns="http://www.w3.org/2000/svg" xmlns:xlink="http://www.w3.org/1999/xlink" width="24px" height="24px" viewBox="0 0 24 24" version="1.1">
<g id="surface1">
<path style=" stroke:none;fill-rule:evenodd;fill:rgb(0%,0%,0%);fill-opacity:1;" d="M 22.5 18 C 22.5 18.152344 22.472656 18.296875 22.429688 18.433594 L 15.75 11.25 L 22.5 6 Z M 2.667969 19.460938 L 9.433594 12.246094 L 12 14.1875 L 14.453125 12.234375 L 21.332031 19.460938 C 21.226562 19.484375 2.773438 19.484375 2.667969 19.460938 Z M 1.5 18 L 1.5 6 L 8.25 11.25 L 1.570312 18.433594 C 1.527344 18.296875 1.5 18.152344 1.5 18 Z M 21.75 4.5 L 12 12 L 2.25 4.5 Z M 21 3 L 3 3 C 1.34375 3 0 4.34375 0 6 L 0 18 C 0 19.65625 1.34375 21 3 21 L 21 21 C 22.65625 21 24 19.65625 24 18 L 24 6 C 24 4.34375 22.65625 3 21 3 Z M 21 3 "/>
</g>
</svg>
