<?xml version="1.0" encoding="UTF-8"?>
<svg xmlns="http://www.w3.org/2000/svg" xmlns:xlink="http://www.w3.org/1999/xlink" width="24px" height="25px" viewBox="0 0 24 24" version="1.1">
<g id="surface1">
<path style="fill:none;stroke-width:2;stroke-linecap:round;stroke-linejoin:round;stroke:rgb(100%,100%,100%);stroke-opacity:1;stroke-miterlimit:4;" d="M 12 6 L 12.011719 6 M 9 20 L 3 17 L 3 4 L 5 5 M 9 20 L 15 17 M 9 20 L 9 14 M 15 17 L 21 20 L 21 7 L 19 6 M 15 17 L 15 14 M 15 6.199219 C 15 7.96875 13.5 9.398438 12 11 C 10.5 9.398438 9 7.96875 9 6.199219 C 9 4.433594 10.34375 3 12 3 C 13.65625 3 15 4.433594 15 6.199219 Z M 15 6.199219 "/>
</g>
</svg>
