<?xml version="1.0" encoding="UTF-8"?>
<svg xmlns="http://www.w3.org/2000/svg" xmlns:xlink="http://www.w3.org/1999/xlink" width="24px" height="24px" viewBox="0 0 24 24" version="1.1">
<g id="surface1">
<path style="fill:none;stroke-width:2;stroke-linecap:round;stroke-linejoin:round;stroke:rgb(100%,100%,100%);stroke-opacity:1;stroke-miterlimit:4;" d="M 14.050781 6 C 15.027344 6.191406 15.925781 6.667969 16.628906 7.371094 C 17.332031 8.074219 17.808594 8.972656 18 9.949219 M 14.050781 2 C 16.078125 2.226562 17.972656 3.132812 19.417969 4.578125 C 20.859375 6.019531 21.773438 7.910156 22 9.941406 M 18.5 21 C 9.941406 21 3 14.058594 3 5.5 C 3 5.113281 3.015625 4.730469 3.042969 4.351562 C 3.074219 3.917969 3.089844 3.699219 3.203125 3.5 C 3.296875 3.335938 3.464844 3.179688 3.636719 3.097656 C 3.84375 3 4.082031 3 4.5625 3 L 7.378906 3 C 7.78125 3 7.984375 3 8.15625 3.066406 C 8.3125 3.125 8.445312 3.21875 8.554688 3.34375 C 8.675781 3.484375 8.746094 3.671875 8.882812 4.054688 L 10.050781 7.261719 C 10.210938 7.703125 10.289062 7.921875 10.277344 8.132812 C 10.265625 8.316406 10.203125 8.492188 10.09375 8.644531 C 9.972656 8.816406 9.769531 8.9375 9.367188 9.179688 L 8 10 C 9.203125 12.648438 11.351562 14.800781 14 16 L 14.820312 14.632812 C 15.0625 14.226562 15.183594 14.027344 15.355469 13.90625 C 15.507812 13.796875 15.683594 13.734375 15.867188 13.722656 C 16.078125 13.710938 16.296875 13.789062 16.738281 13.949219 L 19.945312 15.117188 C 20.328125 15.253906 20.515625 15.324219 20.65625 15.445312 C 20.78125 15.554688 20.875 15.6875 20.933594 15.84375 C 21 16.015625 21 16.21875 21 16.621094 L 21 19.4375 C 21 19.917969 21 20.15625 20.902344 20.363281 C 20.820312 20.535156 20.664062 20.703125 20.5 20.796875 C 20.300781 20.910156 20.082031 20.925781 19.648438 20.957031 C 19.269531 20.984375 18.886719 21 18.5 21 Z M 18.5 21 "/>
</g>
</svg>
