<?xml version="1.0" encoding="UTF-8"?>
<svg xmlns="http://www.w3.org/2000/svg" xmlns:xlink="http://www.w3.org/1999/xlink" width="32px" height="32px" viewBox="0 0 32 32" version="1.1">
<g id="surface1">
<path style="fill:none;stroke-width:2;stroke-linecap:round;stroke-linejoin:round;stroke:rgb(12.941176%,12.941176%,12.941176%);stroke-opacity:1;stroke-miterlimit:4;" d="M 3 5.499023 C 3 14.05957 9.94043 21 18.500977 21 C 18.884766 21 19.268555 20.985352 19.649414 20.958984 C 20.083008 20.926758 20.299805 20.90918 20.499023 20.794922 C 20.663086 20.701172 20.818359 20.53418 20.900391 20.364258 C 21 20.15918 21 19.918945 21 19.438477 L 21 16.620117 C 21 16.21582 21 16.013672 20.932617 15.84082 C 20.874023 15.688477 20.780273 15.553711 20.657227 15.445312 C 20.516602 15.325195 20.326172 15.254883 19.948242 15.117187 L 16.740234 13.951172 C 16.297852 13.790039 16.078125 13.710937 15.867187 13.722656 C 15.682617 13.734375 15.506836 13.798828 15.354492 13.907227 C 15.18457 14.027344 15.061523 14.229492 14.821289 14.630859 L 14.000977 15.999023 C 11.349609 14.800781 9.202148 12.647461 8.000977 9.999023 L 9.369141 9.178711 C 9.770508 8.938477 9.972656 8.81543 10.092773 8.645508 C 10.201172 8.493164 10.265625 8.317383 10.277344 8.132812 C 10.289062 7.921875 10.209961 7.702148 10.048828 7.259766 L 8.882812 4.051758 C 8.745117 3.673828 8.674805 3.483398 8.554687 3.342773 C 8.446289 3.219727 8.311523 3.125977 8.15918 3.067383 C 7.986328 3 7.78418 3 7.379883 3 L 4.561523 3 C 4.081055 3 3.84082 3 3.635742 3.099609 C 3.46582 3.181641 3.298828 3.336914 3.205078 3.500977 C 3.09082 3.700195 3.073242 3.916992 3.041016 4.350586 C 3.014648 4.731445 3 5.115234 3 5.499023 Z M 3 5.499023 " transform="matrix(1.333333,0,0,1.333333,0,0)"/>
</g>
</svg>
