<?xml version="1.0" encoding="UTF-8"?>
<svg xmlns="http://www.w3.org/2000/svg" xmlns:xlink="http://www.w3.org/1999/xlink" width="24px" height="24px" viewBox="0 0 24 24" version="1.1">
<g id="surface1">
<path style=" stroke:none;fill-rule:nonzero;fill:rgb(0%,0%,0%);fill-opacity:1;" d="M 22.597656 1.917969 C 22.378906 1.777344 22.097656 1.773438 21.875 1.910156 L 1.417969 14.277344 C 1.183594 14.414062 1.058594 14.679688 1.089844 14.945312 C 1.125 15.214844 1.3125 15.441406 1.570312 15.519531 L 7.96875 17.476562 L 8.808594 21.640625 C 8.855469 21.878906 9.03125 22.074219 9.261719 22.152344 C 9.332031 22.175781 9.40625 22.1875 9.480469 22.1875 C 9.644531 22.1875 9.808594 22.128906 9.933594 22.015625 L 13.246094 19.089844 L 20.042969 21.167969 C 20.109375 21.1875 20.175781 21.195312 20.242188 21.195312 C 20.375 21.195312 20.507812 21.160156 20.621094 21.085938 C 20.792969 20.972656 20.902344 20.789062 20.925781 20.585938 L 22.910156 2.570312 C 22.9375 2.3125 22.816406 2.058594 22.597656 1.917969 Z M 9.917969 20.203125 L 9.460938 17.929688 L 11.707031 18.617188 Z M 19.652344 19.613281 L 11.140625 17.011719 L 18.03125 8.925781 C 18.15625 8.78125 18.136719 8.5625 17.992188 8.441406 C 17.851562 8.316406 17.632812 8.335938 17.511719 8.480469 L 10.425781 16.792969 L 3.441406 14.65625 L 21.394531 3.800781 Z M 19.652344 19.613281 "/>
<path style=" stroke:none;fill-rule:nonzero;fill:rgb(0%,0%,0%);fill-opacity:1;" d="M 19.035156 13.613281 C 19.050781 13.617188 19.066406 13.617188 19.078125 13.617188 C 19.25 13.617188 19.398438 13.488281 19.417969 13.316406 L 19.484375 12.800781 C 19.507812 12.613281 19.371094 12.441406 19.183594 12.417969 C 18.996094 12.394531 18.824219 12.53125 18.800781 12.71875 L 18.738281 13.230469 C 18.714844 13.417969 18.847656 13.589844 19.035156 13.613281 Z M 19.035156 13.613281 "/>
<path style=" stroke:none;fill-rule:nonzero;fill:rgb(0%,0%,0%);fill-opacity:1;" d="M 18.578125 17.277344 C 18.597656 17.28125 18.613281 17.28125 18.628906 17.28125 C 18.796875 17.28125 18.941406 17.160156 18.96875 16.988281 L 19.296875 14.695312 C 19.324219 14.507812 19.191406 14.332031 19.003906 14.304688 C 18.820312 14.28125 18.644531 14.410156 18.617188 14.597656 L 18.289062 16.890625 C 18.261719 17.078125 18.390625 17.25 18.578125 17.277344 Z M 18.578125 17.277344 "/>
</g>
</svg>
