<?xml version="1.0" encoding="UTF-8"?>
<svg xmlns="http://www.w3.org/2000/svg" xmlns:xlink="http://www.w3.org/1999/xlink" width="32px" height="32px" viewBox="0 0 32 32" version="1.1">
<g id="surface1">
<path style=" stroke:none;fill-rule:evenodd;fill:rgb(100%,86.666667%,26.27451%);fill-opacity:1;" d="M 21.65625 20.238281 C 22.046875 20.628906 22.046875 21.269531 21.65625 21.660156 C 21.265625 22.050781 20.632812 22.050781 20.242188 21.660156 L 16.007812 17.421875 L 11.738281 21.691406 C 11.347656 22.078125 10.707031 22.078125 10.3125 21.691406 C 9.921875 21.289062 9.921875 20.648438 10.3125 20.261719 L 14.578125 15.988281 L 10.34375 11.761719 C 9.953125 11.371094 9.953125 10.730469 10.34375 10.339844 C 10.734375 9.949219 11.367188 9.949219 11.757812 10.339844 L 15.992188 14.578125 L 20.292969 10.28125 C 20.6875 9.890625 21.324219 9.890625 21.71875 10.28125 C 22.109375 10.679688 22.109375 11.308594 21.71875 11.710938 L 17.421875 16.011719 Z M 16 0 C 7.164062 0 0 7.160156 0 16 C 0 24.839844 7.164062 32 16 32 C 24.835938 32 32 24.839844 32 16 C 32 7.160156 24.835938 0 16 0 Z M 16 0 "/>
</g>
</svg>
