<?xml version="1.0" encoding="UTF-8"?>
<svg xmlns="http://www.w3.org/2000/svg" xmlns:xlink="http://www.w3.org/1999/xlink" width="32px" height="32px" viewBox="0 0 32 32" version="1.1">
<g id="surface1">
<path style="fill-rule:nonzero;fill:rgb(100%,86.666667%,26.27451%);fill-opacity:1;stroke-width:1;stroke-linecap:butt;stroke-linejoin:miter;stroke:rgb(100%,86.666667%,26.27451%);stroke-opacity:1;stroke-miterlimit:4;" d="M 6.500244 11.749756 C 6.085205 11.749756 5.749512 12.085449 5.749512 12.500488 C 5.749512 12.915527 6.085205 13.251221 6.500244 13.251221 Z M 18.499756 13.251221 C 18.914795 13.251221 19.250488 12.915527 19.250488 12.500488 C 19.250488 12.085449 18.914795 11.749756 18.499756 11.749756 Z M 6.500244 15.75061 C 6.085205 15.75061 5.749512 16.086304 5.749512 16.501343 C 5.749512 16.91333 6.085205 17.249023 6.500244 17.249023 Z M 18.499756 17.249023 C 18.914795 17.249023 19.250488 16.91333 19.250488 16.501343 C 19.250488 16.086304 18.914795 15.75061 18.499756 15.75061 Z M 6.500244 7.748901 C 6.085205 7.748901 5.749512 8.084595 5.749512 8.499634 C 5.749512 8.914673 6.085205 9.250366 6.500244 9.250366 Z M 18.499756 9.250366 C 18.914795 9.250366 19.250488 8.914673 19.250488 8.499634 C 19.250488 8.084595 18.914795 7.748901 18.499756 7.748901 Z M 6.500244 13.251221 L 18.499756 13.251221 L 18.499756 11.749756 L 6.500244 11.749756 Z M 6.500244 17.249023 L 18.499756 17.249023 L 18.499756 15.75061 L 6.500244 15.75061 Z M 6.500244 9.250366 L 18.499756 9.250366 L 18.499756 7.748901 L 6.500244 7.748901 Z M 6.500244 9.250366 " transform="matrix(1.28,0,0,1.28,0,0.64)"/>
</g>
</svg>
